<svg width="50" height="50" viewBox="0 0 50 50" fill="none" xmlns="http://www.w3.org/2000/svg">
<path d="M25 47.3958C12.6459 47.3958 2.60419 37.3542 2.60419 25C2.60419 12.6458 12.6459 2.60417 25 2.60417C37.3542 2.60417 47.3959 12.6458 47.3959 25C47.3959 37.3542 37.3542 47.3958 25 47.3958ZM25 5.72917C14.375 5.72917 5.72919 14.375 5.72919 25C5.72919 35.625 14.375 44.2708 25 44.2708C35.625 44.2708 44.2709 35.625 44.2709 25C44.2709 14.375 35.625 5.72917 25 5.72917Z" fill="white"/>
<path d="M22.375 33.9167C21.9791 33.9167 21.5833 33.7708 21.2708 33.4583C20.6666 32.8542 20.6666 31.8542 21.2708 31.25L27.5208 25L21.2708 18.75C20.6666 18.1458 20.6666 17.1458 21.2708 16.5417C21.875 15.9375 22.875 15.9375 23.4791 16.5417L30.8333 23.8958C31.4375 24.5 31.4375 25.5 30.8333 26.1042L23.4791 33.4583C23.1666 33.7708 22.7708 33.9167 22.375 33.9167Z" fill="white"/>
</svg>
